<svg width="368" height="41" viewBox="0 0 368 41" fill="none" xmlns="http://www.w3.org/2000/svg">
<path d="M6.00024 22.4598C8.31533 20.6376 11.6262 18.9846 24.4512 13.2716C32.1629 9.83638 39.9748 7.70293 45.5683 6.03259C47.3097 5.51258 45.0033 10.501 43.8432 13.9811C43.1811 15.9675 42.3496 17.6404 42.0136 18.8004C41.867 19.3064 42.9919 19.6319 43.9079 19.6368C44.824 19.6418 45.8098 19.3132 56.0111 17.2545C66.2124 15.1959 85.5994 11.417 95.9153 9.47037C106.231 7.5237 106.888 7.5237 104.598 10.481C97.4661 19.6906 90.8121 26.597 89.2389 28.9968C87.6348 31.4435 87.1528 33.5722 87.6457 34.5679C87.9109 35.1038 89.1243 34.9065 108.691 31.7027C128.257 28.4989 166.374 22.0913 186.42 18.6262C206.467 15.161 207.288 14.8324 207.054 14.8274C201.796 14.7155 197.192 20.4583 194.702 22.6987C193.081 24.1576 192.537 26.2684 192.452 27.7596C192.414 28.4328 192.86 28.9221 193.44 29.3403C194.02 29.7585 194.842 30.0871 199.044 30.0921C203.246 30.0971 210.803 29.7685 230.223 26.3954C249.642 23.0223 280.694 16.6148 297.019 13.1496C313.344 9.68445 314.002 9.35586 313.929 9.10443C313.657 8.15708 311.532 8.68373 310.947 9.09697C308.799 10.614 316.322 10.5109 324.576 10.6777C330.014 10.7876 339.871 10.023 345.688 9.60479C355.494 8.19084 358.317 7.3594 359.808 6.94617C360.478 6.69724 360.97 6.36865 361.478 6.0301" stroke="white" stroke-width="12" stroke-linecap="round"/>
</svg>
